<?xml version="1.0" encoding="UTF-8" standalone="no"?>
<!-- Created with Inkscape (http://www.inkscape.org/) -->

<svg
   xmlns:dc="http://purl.org/dc/elements/1.1/"
   xmlns:cc="http://creativecommons.org/ns#"
   xmlns:rdf="http://www.w3.org/1999/02/22-rdf-syntax-ns#"
   xmlns:svg="http://www.w3.org/2000/svg"
   xmlns="http://www.w3.org/2000/svg"
   xmlns:sodipodi="http://sodipodi.sourceforge.net/DTD/sodipodi-0.dtd"
   xmlns:inkscape="http://www.inkscape.org/namespaces/inkscape"
   width="250"
   height="250"
   viewBox="0 0 250 250"
   id="svg5373"
   version="1.1"
   inkscape:version="0.91 r13725"
   sodipodi:docname="shipicon.svg">
  <defs
     id="defs5375" />
  <sodipodi:namedview
     id="base"
     pagecolor="#ffffff"
     bordercolor="#666666"
     borderopacity="1.0"
     inkscape:pageopacity="0.0"
     inkscape:pageshadow="2"
     inkscape:zoom="2.1646365"
     inkscape:cx="165.9043"
     inkscape:cy="161.94705"
     inkscape:document-units="px"
     inkscape:current-layer="layer6"
     showgrid="false"
     units="px"
     inkscape:window-width="1920"
     inkscape:window-height="1017"
     inkscape:window-x="-8"
     inkscape:window-y="-8"
     inkscape:window-maximized="1" />
  <metadata
     id="metadata5378">
    <rdf:RDF>
      <cc:Work
         rdf:about="">
        <dc:format>image/svg+xml</dc:format>
        <dc:type
           rdf:resource="http://purl.org/dc/dcmitype/StillImage" />
        <dc:title></dc:title>
      </cc:Work>
    </rdf:RDF>
  </metadata>
  <g
     inkscape:groupmode="layer"
     id="layer6"
     inkscape:label="Layer 2"
     style="display:inline">
    <path
       style="fill:#808080;fill-rule:evenodd;stroke:#808080;stroke-width:1.07199574px;stroke-linecap:butt;stroke-linejoin:miter;stroke-opacity:1;fill-opacity:1"
       d="m 102.31938,10.340683 -1.4857,8.914163 -42.094651,39.618501 -12.876013,1.485693 -33.180494,34.66619 -2.476157,13.37124 13.866475,0.49524 36.151883,-35.161425 3.961849,-11.390319 41.599418,-38.628038 10.39986,-0.495232 z"
       id="path5945"
       inkscape:connector-curvature="0"
       sodipodi:nodetypes="cccccccccccc" />
    <path
       style="fill:#808080;fill-rule:evenodd;stroke:#808080;stroke-width:1.07199574px;stroke-linecap:butt;stroke-linejoin:miter;stroke-opacity:1;fill-opacity:1"
       d="m 228.27397,143.57355 -1.4857,8.91417 -42.09466,39.61849 -12.87601,1.48569 -33.18049,34.6662 -2.47616,13.37124 13.86648,0.49524 36.15187,-35.16143 3.96185,-11.39032 41.59943,-38.62803 10.39986,-0.49523 z"
       id="path5945-0"
       inkscape:connector-curvature="0"
       sodipodi:nodetypes="cccccccccccc" />
    <path
       style="opacity:0.60199998;fill:#b3b3b3;fill-rule:evenodd;stroke:#b3b3b3;stroke-width:1.07199574px;stroke-linecap:butt;stroke-linejoin:miter;stroke-opacity:0.60392159"
       d="m 193.93716,43.025946 c 2.47616,-1.485689 11.39032,-3.466619 11.39032,-3.466619 l 6.93324,5.942779 -2.47616,10.399848 -69.33237,86.665486 -4.45708,-2.47616 -48.532669,47.5422 -14.361706,1.98092 -14.361706,-14.36171 0.495231,-14.85694 50.01836,-48.53266 -3.96185,-4.95231 z"
       id="path5962"
       inkscape:connector-curvature="0"
       sodipodi:nodetypes="ccccccccccccc" />
    <path
       style="fill:#808080;fill-rule:evenodd;stroke:#000000;stroke-width:1.07199574px;stroke-linecap:butt;stroke-linejoin:miter;stroke-opacity:0"
       d="m 136.49034,144.05313 13.86647,12.876 -44.57082,45.06605 -7.923691,-0.49523 -14.361707,23.77111 -13.371244,-11.88556 21.790175,-16.34263 -1.485694,-8.41893 z"
       id="path5965"
       inkscape:connector-curvature="0"
       sodipodi:nodetypes="ccccccccc" />
    <path
       style="display:inline;fill:#808080;fill-rule:evenodd;stroke:#000000;stroke-width:1.07199574px;stroke-linecap:butt;stroke-linejoin:miter;stroke-opacity:0"
       d="m 90.66538,99.582895 13.3152,13.445295 -46.418572,43.16041 -7.896016,-0.82655 -15.34437,23.14896 -12.861888,-12.43498 22.455311,-15.41597 -1.131908,-8.47375 z"
       id="path5965-6"
       inkscape:connector-curvature="0"
       sodipodi:nodetypes="ccccccccc" />
    <path
       style="fill:#000000;fill-rule:evenodd;stroke:#000000;stroke-width:1.07199574px;stroke-linecap:butt;stroke-linejoin:miter;stroke-opacity:1"
       d="M 115.19539,112.85356 136.49034,133.65327 162.7376,98.49185 151.34728,86.606297 Z"
       id="path5982"
       inkscape:connector-curvature="0"
       sodipodi:nodetypes="ccccc" />
    <path
       style="fill:#b3b3b3;fill-rule:evenodd;stroke:#b3b3b3;stroke-width:1.07199574px;stroke-linecap:butt;stroke-linejoin:miter;stroke-opacity:0.60392159;fill-opacity:0.60392159"
       d="M 27.539459,110.3774 42.891628,139.10082 78.053048,107.90124 55.767641,81.158754 Z"
       id="path5984"
       inkscape:connector-curvature="0" />
    <path
       style="fill:#b3b3b3;fill-rule:evenodd;stroke:#b3b3b3;stroke-width:1.07199574px;stroke-linecap:butt;stroke-linejoin:miter;stroke-opacity:0.60392159;fill-opacity:0.60392159"
       d="m 109.25261,202.98565 28.72342,20.30448 28.72342,-28.22818 -29.71388,-20.30449 z"
       id="path5986"
       inkscape:connector-curvature="0"
       sodipodi:nodetypes="ccccc" />
  </g>
</svg>
