<?xml version="1.0" encoding="UTF-8" standalone="no"?>
<!-- Created with Inkscape (http://www.inkscape.org/) -->

<svg
   xmlns:dc="http://purl.org/dc/elements/1.1/"
   xmlns:cc="http://creativecommons.org/ns#"
   xmlns:rdf="http://www.w3.org/1999/02/22-rdf-syntax-ns#"
   xmlns:svg="http://www.w3.org/2000/svg"
   xmlns="http://www.w3.org/2000/svg"
   xmlns:sodipodi="http://sodipodi.sourceforge.net/DTD/sodipodi-0.dtd"
   xmlns:inkscape="http://www.inkscape.org/namespaces/inkscape"
   width="850"
   height="200"
   viewBox="0 0 0 1052.3622"
   id="svg2"
   version="1.1"
   inkscape:version="0.91 r13725"
   sodipodi:docname="testsabersimple.svg">
  <defs
     id="defs4" />
  <sodipodi:namedview
     id="base"
     pagecolor="#ffffff"
     bordercolor="#666666"
     borderopacity="1.0"
     inkscape:pageopacity="0.0"
     inkscape:pageshadow="2"
     inkscape:zoom="1.4"
     inkscape:cx="438.84273"
     inkscape:cy="120.25685"
     inkscape:document-units="px"
     inkscape:current-layer="layer1"
     showgrid="false"
     units="px"
     borderlayer="false"
     inkscape:window-width="1920"
     inkscape:window-height="1005"
     inkscape:window-x="-9"
     inkscape:window-y="-9"
     inkscape:window-maximized="1" />
  <metadata
     id="metadata7">
    <rdf:RDF>
      <cc:Work
         rdf:about="">
        <dc:format>image/svg+xml</dc:format>
        <dc:type
           rdf:resource="http://purl.org/dc/dcmitype/StillImage" />
        <dc:title></dc:title>
      </cc:Work>
    </rdf:RDF>
  </metadata>
  <g
     inkscape:label="Outline"
     inkscape:groupmode="layer"
     id="layer1"
     transform="translate(0,-852.36216)">
    <path
       style="fill:none;fill-rule:evenodd;stroke:#000000;stroke-width:1px;stroke-linecap:butt;stroke-linejoin:miter;stroke-opacity:1"
       d="m 737.18728,1005.3801 c 4.60982,-0.4239 3.73224,-7.74372 12.37437,-8.08123 l 28.03173,0.50507 c 4.31747,0.62199 1.40294,5.61206 9.09138,8.08126 6.20728,-6.76297 6.25699,-22.64375 5.80837,-33.58761 28.62823,-17.62193 42.14263,-48.45152 37.37564,-54.80077 l -35.60787,-0.50508 c -0.88692,-2.69374 -0.83714,-5.38748 -5.55584,-8.08122 l -0.25254,-32.27893 c -2.12367,-10.21615 -14.233,-15.43695 -22.37129,-15.19561 -26.50136,0.29678 -22.18785,16.10158 -22.83304,15.4022 l 0,20.45558 c -1.88389,-1.35851 -3.53545,0.25281 -4.79822,0.75762 l -0.50508,8.08122 c -7.43596,7.83229 -5.74034,8.27423 -8.33376,11.86929 l -18.43528,-0.25254 -0.43111,-15.34354 c -0.7043,-4.2675 -2.84655,-3.33162 -4.06862,-4.38506 0.58844,-4.51574 -2.97444,-6.8925 -2.97444,-6.8925 -9.7619,-2.95 -36.8925,-1.79908 -36.21494,0.26784 -1.16594,4.07401 -1.36033,4.40859 -1.30864,6.46139 -3.64178,0.35277 -4.93299,1.9632 -5.0048,3.98196 l -0.25254,16.41498 -195.33825,-0.12627 c -0.23311,-2.14227 0.24467,-6.18023 -0.88388,-5.93465 l -33.0825,0.25254 -4.54568,3.53554 -65.40738,0 -4.04061,-3.78808 -33.58757,0.25254 c -1.0399,-0.12881 -0.81361,2.58871 -0.63135,4.29315 l -20.32932,-0.25254 -0.25254,-10.85914 c -0.75951,-2.02391 -2.51284,-3.17822 -5.17703,-3.53553 l -239.532419,0.50508 c -3.114626,-0.0842 -4.545697,1.51522 -4.293148,4.79822 l 0,9.34391 -10.85914,-0.25254 c -4.27646,1.42298 -3.949491,1.95903 -5.050762,6.18719 0,0 -0.420888,11.02557 -0.505077,16.54125 -0.310263,20.32695 0,60.98801 0,60.98801 0.03347,3.5355 0.206649,5.6731 1.515229,8.0812 0.859985,1.5826 2.089139,2.3627 3.914341,3.7249 16.549882,0.7838 8.688423,0.2598 13.032635,0.3896 l 0.200239,7.8198 c 0.872076,3.4384 2.372942,5.2552 3.683467,6.0329 l 240.420015,-0.4158 c 2.5178,0.6683 1.08241,-10.5038 1.15174,-15.7467 l 21.82924,0.089 c 1.20202,0.4107 -0.29199,6.9947 1.64149,6.566 l 34.85026,0 c 0.66743,-3.6248 1.83233,-4.6103 4.54756,-4.9074 0.60408,-0.066 0.44769,4.2792 1.14674,4.7125 0.67728,0.4198 1.07016,0.16 1.55231,0.175 0.65924,0.021 1.41941,0.078 1.78703,-0.3846 1.11269,-1.3998 0.81535,-4.6463 0.81535,-4.6463 l 1.39615,0.037 c 0.34655,2.1031 -0.29578,4.8378 2.26419,5.0846 1.89305,-0.1794 1.96611,-2.0231 1.76934,-5.0011 l 1.5172,0.031 c 0.50509,2.0762 -0.68814,4.766 2.39552,5.0238 1.46363,-0.4701 2.27111,0.6487 2.27704,-4.9271 l 1.64864,0.034 c 0.34775,1.925 -0.4042,4.4905 1.76428,4.5875 2.38511,-0.01 1.6638,-2.53 2.01955,-4.5091 l 1.25693,0.026 c 0.1972,2.1913 -0.0205,4.0132 1.89589,4.8348 2.05967,-0.058 2.03351,-1.2074 2.01966,-4.8931 l 1.76673,0.1759 c 8.82003,1.4509 13.51184,8.9142 20.32933,9.2176 3.14262,0.7884 6.71496,0.6819 8.19665,0.1416 5.94288,-1.2383 9.55139,-4.9298 12.01828,-7.6786 0.51546,-0.5744 -0.5559,0.7709 0.0404,0.1025 0.24525,1.4511 -0.28786,4.2837 0.57904,4.0253 l 29.84283,0.1632 c 0.45969,0.023 1.20966,-0.4678 1.57447,-1.8445 0.41528,-1.567 0.40619,-4.1328 0.22654,-5.7469 l 2.70132,-0.148 244.45691,-0.2525 c 7.5933,-12.15928 14.52982,-16.43725 21.46575,-20.70815 l -0.18941,0.66292 c -1.06008,6.9568 -1.09364,14.36333 2.46225,15.24703 z"
       id="path3353"
       inkscape:connector-curvature="0"
       sodipodi:nodetypes="cccccccccccccccccccccccccccccccccccccccacacccccccccssssccccccccccccccccscccsccccccc" />
    <path
       style="fill:none;fill-rule:evenodd;stroke:#000000;stroke-width:1px;stroke-linecap:butt;stroke-linejoin:miter;stroke-opacity:1"
       d="m 625.80357,1010.755 0,1.9643 c -2.38256,0.059 -8.13495,-0.3628 -7.14286,0.1786 -1.25672,1.7941 8.04985,7.6864 18.30325,9.7015 1.47097,0.2661 10.02886,0.4202 13.80208,-0.3643 6.89133,-1.4327 13.79153,-4.0004 18.43039,-8.2505 2.06619,-2.0661 -1.57157,-1.4363 -6.51786,-1.4439 l -0.0893,-2.1428"
       id="path3397"
       inkscape:connector-curvature="0"
       sodipodi:nodetypes="ccccsccc" />
    <path
       style="fill:none;fill-rule:evenodd;stroke:#000000;stroke-width:1px;stroke-linecap:butt;stroke-linejoin:miter;stroke-opacity:1"
       d="m 53.839285,916.5586 0.178572,10.62499 c 0.232419,0.65689 -0.352055,1.45271 1.696428,1.42858 l 245.714285,-0.17858 c 1.70661,0.16459 1.69642,-1.24999 1.69642,-1.24999 l 10e-6,-4.10715 c 0.0223,0.0893 2.15041,0.40853 1.69643,-1.60714 0.13813,-0.22128 -0.10568,-1.97032 -0.17857,-3.03571 0.12816,-1.26325 -0.73684,-1.73197 -1.78572,-2.05357"
       id="path3416"
       inkscape:connector-curvature="0"
       sodipodi:nodetypes="ccccccccc" />
    <path
       style="fill:none;fill-rule:evenodd;stroke:#000000;stroke-width:1px;stroke-linecap:butt;stroke-linejoin:miter;stroke-opacity:1"
       d="m 51.607142,945.93359 c -2.997348,0.77811 -2.040406,3.0423 -2.321428,5.17858 0.04046,2.9993 0.02822,5.81389 2.321428,6.78571 l 0.178572,9.91072 c 0.108342,2.1345 1.214982,2.27241 2.5,2.05357 l 245.178566,-0.35715 c 1.83281,0.33817 1.74768,-1.41595 1.78572,-3.03571 l -0.12627,-8.16385 c 1.01778,-0.78386 2.74653,0.60634 2.4477,-2.37187 -0.17857,-3.21428 0.51602,-10.21231 -0.53572,-9.64285 -2.63175,-0.31869 -2.08313,-1.61433 -2.14286,-2.85715 -0.11905,-2.5 0.32691,-6.97751 -0.35714,-7.5 l -248.392853,-0.0893 c -0.946778,-0.33473 -0.508758,6.74473 -0.535715,10.08928 z"
       id="path3418"
       inkscape:connector-curvature="0"
       sodipodi:nodetypes="cccccccccccccc" />
    <path
       style="fill:none;fill-rule:evenodd;stroke:#000000;stroke-width:1px;stroke-linecap:butt;stroke-linejoin:miter;stroke-opacity:1"
       d="m 55.472579,1012.3207 c -1.15776,-0.2678 -3.299934,0.6452 -2.97258,-1.7442 l 0,-7.5 c -1.438592,0.01 -2.53585,-0.5678 -2.321428,-3.39291 0.269788,-2.51166 -0.725897,-6.02211 2.410714,-5.44642 -0.409636,-4.83877 -0.430599,-8.14907 -0.08929,-8.48215 l 247.946425,-0.80357 c 1.41562,-0.43995 1.30081,0.68483 1.29051,2.81496 -0.006,1.22161 -0.0198,3.28232 0.41675,4.27559 0.91848,2.01025 2.61779,-1.55216 2.22132,5.7666 0.39832,4.5382 -0.80703,5.7781 -2.97258,5.3157 l -0.13529,7.4153"
       id="path3420"
       inkscape:connector-curvature="0"
       sodipodi:nodetypes="cccccccscccc" />
    <path
       style="fill:none;fill-rule:evenodd;stroke:#000000;stroke-width:1px;stroke-linecap:butt;stroke-linejoin:miter;stroke-opacity:1"
       d="m 323.21429,916.20145 0.0217,50.11992 142.61358,0.78826 -0.31382,-49.21175"
       id="path3422"
       inkscape:connector-curvature="0"
       sodipodi:nodetypes="cccc" />
    <path
       style="fill:none;fill-rule:evenodd;stroke:#000000;stroke-width:1px;stroke-linecap:butt;stroke-linejoin:miter;stroke-opacity:1"
       d="m 323.27727,965.7316 -2.52538,0 0.25254,44.3204"
       id="path3424"
       inkscape:connector-curvature="0"
       sodipodi:nodetypes="ccc" />
    <path
       style="fill:none;fill-rule:evenodd;stroke:#000000;stroke-width:1px;stroke-linecap:butt;stroke-linejoin:miter;stroke-opacity:1"
       d="m 465.83505,966.11041 2.77792,0.25254 0.25254,43.94165"
       id="path3426"
       inkscape:connector-curvature="0" />
    <path
       style="fill:none;fill-rule:evenodd;stroke:#000000;stroke-width:1px;stroke-linecap:butt;stroke-linejoin:miter;stroke-opacity:1"
       d="m 323.78235,972.55012 c -0.61827,-0.17981 -0.79006,27.04176 0.25254,24.74875 l 141.54762,-0.50508 c 0.40737,0.50056 0.41697,-24.59781 -0.12627,-24.11739 z"
       id="path3434"
       inkscape:connector-curvature="0"
       sodipodi:nodetypes="ccccc" />
    <path
       style="fill:none;fill-rule:evenodd;stroke:#000000;stroke-width:1px;stroke-linecap:butt;stroke-linejoin:miter;stroke-opacity:1"
       d="m 361.28426,1012.83 c -3.68735,-1.8264 -7.81203,-3.2155 -7.82868,-8.7126 l 84.06719,0.037 c 1.34916,4.0163 -1.19455,6.9576 -3.38126,9.5595"
       id="path3436"
       inkscape:connector-curvature="0"
       sodipodi:nodetypes="cccc" />
    <path
       style="fill:none;fill-rule:evenodd;stroke:#000000;stroke-width:1px;stroke-linecap:butt;stroke-linejoin:miter;stroke-opacity:1"
       d="m 357.74873,911.81471 0.50507,52.02285 74.75129,0 -0.75761,-51.51778"
       id="path3438"
       inkscape:connector-curvature="0" />
    <path
       style="fill:none;fill-rule:evenodd;stroke:#000000;stroke-width:1px;stroke-linecap:butt;stroke-linejoin:miter;stroke-opacity:1"
       d="m 666.42857,897.36217 c -1.74412,3.9544 38.82183,5.01868 39.82143,0.71428"
       id="path3440"
       inkscape:connector-curvature="0"
       sodipodi:nodetypes="cc" />
    <path
       style="fill:none;fill-rule:evenodd;stroke:#000000;stroke-width:1px;stroke-linecap:butt;stroke-linejoin:miter;stroke-opacity:1"
       d="m 711.16071,917.89788 c -3.80846,8.44372 -47.47359,7.28131 -50.26785,0.44643"
       id="path3444"
       inkscape:connector-curvature="0"
       sodipodi:nodetypes="cc" />
    <path
       style="fill:none;fill-rule:evenodd;stroke:#000000;stroke-width:1px;stroke-linecap:butt;stroke-linejoin:miter;stroke-opacity:1"
       d="m 729.61113,918.00189 1.78944,1.62618 c -0.36275,2.2147 0.18878,4.14011 0.1046,6.07624 0.33412,2.35328 1.51085,3.18987 3.03046,3.40926 l 59.22019,0.25254 c 0.68643,-0.30948 0.90606,0.96879 0.92721,-2.88887 l -0.29586,-9.4855"
       id="path3446"
       inkscape:connector-curvature="0"
       sodipodi:nodetypes="ccccccc" />
    <ellipse
       style="fill:none;stroke:#000000;stroke-width:0.9003306"
       id="path3457"
       cx="693.92859"
       cy="996.02289"
       rx="16.299835"
       ry="11.38912" />
    <path
       style="fill:none;fill-rule:evenodd;stroke:#000000;stroke-width:1px;stroke-linecap:butt;stroke-linejoin:miter;stroke-opacity:1"
       d="m 681.875,993.34431 1.42857,4.10714 3.03571,2.32143 2.14286,-0.53571 2.67857,-5.89286 -4.01785,-4.01786 z"
       id="path3459"
       inkscape:connector-curvature="0" />
    <path
       style="fill:none;fill-rule:evenodd;stroke:#000000;stroke-width:1px;stroke-linecap:butt;stroke-linejoin:miter;stroke-opacity:1"
       d="m 698.30357,990.75502 c -0.71429,0.44643 -3.39286,3.03572 -3.39286,3.03572 l 1.51786,3.75 3.48214,2.32143 3.39286,-0.89286 0.35714,-3.30357 1.25,-2.67857 -4.375,-2.67858 z"
       id="path3461"
       inkscape:connector-curvature="0" />
    <path
       style="fill:none;fill-rule:evenodd;stroke:#000000;stroke-width:1px;stroke-linecap:butt;stroke-linejoin:miter;stroke-opacity:1"
       d="m 465.89285,961.64788 2.05359,0 337.41071,0.89286"
       id="path3463"
       inkscape:connector-curvature="0"
       sodipodi:nodetypes="ccc" />
    <path
       style="fill:none;fill-rule:evenodd;stroke:#000000;stroke-width:1px;stroke-linecap:butt;stroke-linejoin:miter;stroke-opacity:1"
       d="M 797.5,968.96931 468.75,968.25502"
       id="path3465"
       inkscape:connector-curvature="0" />
    <path
       style="fill:none;fill-rule:evenodd;stroke:#000000;stroke-width:1px;stroke-linecap:butt;stroke-linejoin:miter;stroke-opacity:1"
       d="m 323.03571,961.29074 -21.42857,0"
       id="path3467"
       inkscape:connector-curvature="0" />
    <path
       style="fill:none;fill-rule:evenodd;stroke:#000000;stroke-width:1px;stroke-linecap:butt;stroke-linejoin:miter;stroke-opacity:1"
       d="m 301.25,967.18359 19.64285,0"
       id="path3469"
       inkscape:connector-curvature="0" />
    <path
       style="fill:none;fill-rule:evenodd;stroke:#000000;stroke-width:1px;stroke-linecap:butt;stroke-linejoin:miter;stroke-opacity:1"
       d="m 51.356835,962.82741 -14.015866,0.0631"
       id="path3475"
       inkscape:connector-curvature="0"
       sodipodi:nodetypes="cc" />
    <path
       style="fill:none;fill-rule:evenodd;stroke:#000000;stroke-width:1px;stroke-linecap:butt;stroke-linejoin:miter;stroke-opacity:1"
       d="M 37.404104,969.45654 51.861912,969.204"
       id="path3477"
       inkscape:connector-curvature="0" />
  </g>
  <path
     style="fill:#333333;stroke:none"
     d="m 55.127321,75.599484 -0.446429,-0.13862 -0.109316,-3.65306 c -0.06012,-2.00918 -0.120392,-7.00634 -0.133929,-11.1048 -0.0214,-6.47932 0.01299,-7.545726 0.263556,-8.171945 0.365298,-0.912969 1.041766,-1.394673 2.244911,-1.59857 0.547674,-0.09282 51.776506,-0.251322 121.127636,-0.37478 l 120.17857,-0.213941 1.05014,0.400276 c 1.11091,0.423432 2.29572,1.36132 2.69491,2.133269 0.17672,0.341743 0.27429,1.953751 0.37099,6.129491 0.12251,5.29065 0.15251,5.6658 0.45298,5.6658 0.17698,0 0.53137,0.18081 0.78757,0.40179 0.4535,0.39119 0.4667,0.46298 0.50102,2.72321 0.0347,2.28365 0.0287,2.32236 -0.36654,2.37849 -0.22098,0.0314 -0.40178,0.13183 -0.40178,0.22322 0,0.0914 -0.16072,0.16615 -0.35715,0.16615 -0.3373,0 -0.35714,0.11905 -0.35714,2.14286 0,1.90476 -0.0397,2.18254 -0.35714,2.5 -0.35638,0.35637 -0.59524,0.35714 -111.48839,0.35714 -61.12219,0 -116.54853,0.0388 -123.169646,0.0863 -6.621117,0.0475 -12.239287,0.0239 -12.484823,-0.0523 z"
     id="path3588"
     inkscape:connector-curvature="0" />
  <path
     style="fill:#333333;stroke:none"
     d="m 52.690386,116.53294 c -0.298173,-0.45482 -0.339758,-1.03898 -0.420208,-5.90278 l -0.08929,-5.39801 -0.625,-0.41396 c -0.359073,-0.23782 -0.814947,-0.79374 -1.071428,-1.30655 -0.423379,-0.84651 -0.449161,-1.07239 -0.499357,-4.374742 -0.04871,-3.204714 -0.02498,-3.526814 0.297857,-4.042744 0.228321,-0.36488 0.613739,-0.64825 1.103983,-0.81166 l 0.753198,-0.25107 -0.03421,-4.18834 c -0.01882,-2.30358 0.02072,-4.52991 0.08786,-4.94739 l 0.12207,-0.75906 123.950369,0.0448 123.95038,0.0448 0.0893,4.375 c 0.0629,3.08186 0.15682,4.49322 0.31779,4.77494 0.25959,0.45433 0.92894,0.83794 1.7831,1.0219 l 0.58302,0.12557 -0.0473,5.203564 -0.0473,5.203562 -0.80357,0.13508 c -1.67458,0.28148 -1.55363,-0.17192 -1.53463,5.75358 0.0129,3.97425 -0.0374,5.28903 -0.20957,5.49788 -0.20302,0.24621 -12.0342,0.2861 -114.82143,0.38708 -63.0273,0.0619 -118.624748,0.16226 -123.549884,0.22298 l -8.954793,0.11039 -0.330921,-0.50476 z"
     id="path3590"
     inkscape:connector-curvature="0" />
  <path
     style="fill:#333333;stroke:none"
     d="m 59.051521,172.54671 c -0.697087,-0.73279 -1.54045,-2.2071 -2.098379,-3.66823 -0.206724,-0.54138 -0.305026,-1.79072 -0.390163,-4.95864 -0.0626,-2.3292 -0.170046,-4.29114 -0.238776,-4.35987 -0.06873,-0.0687 -0.76963,-0.16228 -1.557556,-0.20789 -0.787926,-0.0456 -1.481435,-0.16196 -1.541131,-0.25855 -0.0597,-0.0966 -0.09341,-2.13074 -0.07492,-4.52033 l 0.03362,-4.34472 -0.680236,-0.11495 c -1.730011,-0.29237 -1.743175,-0.32288 -1.68667,-3.90932 0.05674,-3.60148 0.203983,-3.9423 1.615273,-3.73887 l 0.787411,0.11351 -0.121974,-1.67633 c -0.320992,-4.41154 -0.354009,-6.75329 -0.0965,-6.84439 0.137939,-0.0488 52.32223,-0.25398 115.96508,-0.45595 63.64286,-0.20197 119.39417,-0.38526 123.89181,-0.40732 8.04984,-0.0395 8.17868,-0.0345 8.25228,0.31704 0.0411,0.19643 0.0987,1.5625 0.1279,3.03571 0.0648,3.26795 0.30528,3.93551 1.57735,4.37818 0.69217,0.24086 0.79588,0.35019 0.93174,0.98214 0.0841,0.39111 0.12564,2.11736 0.0924,3.83611 -0.0801,4.13359 -0.35742,4.67393 -2.2676,4.41772 l -0.67618,-0.0907 -0.12129,3.50243 c -0.0683,1.97179 -0.0328,5.54816 0.0813,8.18348 0.22186,5.12712 0.15537,9.88564 -0.14827,10.61167 l -0.19402,0.46389 -43.80939,0.11635 c -24.09516,0.064 -78.26331,0.16883 -120.37365,0.23297 l -76.564267,0.11661 -0.715135,-0.75176 z"
     id="path3592"
     inkscape:connector-curvature="0" />
  <path
     style="fill:#000000;stroke:none"
     d="m 38.22167,113.71456 0,-2.52538 6.264707,0 6.264707,0 0.175016,2.52569 0.175015,2.5257 -6.439722,-3.2e-4 -6.439723,-3.1e-4 0,-2.52538 z"
     id="path3598"
     inkscape:connector-curvature="0" />
  <path
     style="fill:#000000;stroke:none"
     d="m 301.87148,111.94679 0,-2.27284 10.35407,0 10.35406,0 0,1.51523 c 0,1.27952 -0.19642,1.51523 -1.26269,1.51523 -0.78568,0 -1.26269,0.28621 -1.26269,0.75761 0,0.64538 -1.34687,0.75761 -9.09137,0.75761 l -9.09138,0 0,-2.27284 z"
     id="path3600"
     inkscape:connector-curvature="0" />
  <path
     style="fill:#000000;stroke:none"
     d="m 543.92929,115.35607 c -73.95138,-0.12889 -74.37248,-0.13534 -74.37248,-1.13811 0,-0.78381 -0.33756,-1.00848 -1.51523,-1.00848 -1.3583,0 -1.51523,-0.16244 -1.51523,-1.56846 l 0,-1.56847 168.31667,0.36711 c 92.57416,0.2019 168.38434,0.42612 168.46706,0.49825 0.0827,0.0721 -1.16735,1.17927 -2.77792,2.4603 l -2.92832,2.32915 -89.65103,-0.12083 c -49.30807,-0.0665 -123.11866,-0.17917 -164.02352,-0.25046 z"
     id="path3602"
     inkscape:connector-curvature="0" />
  <path
     style="fill:#cccccc;stroke:none"
     d="m 38.354965,89.849694 c 0.154924,-12.87989 0.441896,-20.46905 0.819228,-21.66501 0.917662,-2.90855 2.974205,-3.62318 9.163828,-3.18436 l 5.00405,0.35477 0.142213,5.61818 0.142213,5.61817 124.448323,0.12728 c 91.57242,0.0937 124.62911,-0.0228 125.13265,-0.44065 0.38022,-0.31555 0.68432,-1.52644 0.68432,-2.72489 0,-1.45137 0.24783,-2.25207 0.75761,-2.44769 0.56041,-0.21505 0.75762,-1.10366 0.75762,-3.41379 l 0,-3.12306 5.38187,0.32929 c 2.96003,0.18111 6.82386,0.3293 8.58629,0.3293 l 3.20443,0 0,21.46574 0,21.465746 -10.35406,0 c -10.01735,0 -10.35407,-0.0328 -10.35407,-1.01015 0,-0.6702 0.33672,-1.01016 1.00053,-1.01016 1.34791,0 1.59709,-1.27578 1.41998,-7.270002 -0.12966,-4.387824 -0.27084,-5.065294 -1.15782,-5.555844 -0.55558,-0.30727 -1.09943,-0.61007 -1.20854,-0.67289 -0.10912,-0.0628 -0.23451,-2.05194 -0.27865,-4.42028 -0.0442,-2.36833 -0.30761,-4.53341 -0.58549,-4.81129 -0.33488,-0.33488 -42.55931,-0.46231 -125.2328,-0.37795 l -124.727575,0.12728 -0.146751,4.78748 c -0.1233,4.02243 -0.313868,4.96536 -1.192541,5.90066 -0.868083,0.92404 -1.04579,1.76478 -1.04579,4.947704 0,3.706692 0.773599,6.840062 1.688744,6.840062 0.24409,0 0.4438,0.90914 0.4438,2.0203 l 0,2.02031 -6.366032,0 -6.366033,0 0.238453,-19.824256 z"
     id="path3604"
     inkscape:connector-curvature="0" />
  <path
     style="fill:#cccccc;stroke:none"
     d="m 41.724085,157.80336 c -3.375945,-2.84067 -3.479011,-3.50857 -3.491011,-22.62306 l -0.01078,-17.17259 131.193246,-0.10403 131.19325,-0.10403 0.83858,-1.03239 c 0.78699,-0.9689 1.38499,-1.0324 9.72271,-1.0324 l 8.88415,0 0,20.70813 0,20.70813 -9.09137,0 -9.09138,0 0,-2.77792 c 0,-1.99028 0.19262,-2.77792 0.67934,-2.77792 0.37363,0 1.08624,-0.44964 1.58358,-0.99919 0.72745,-0.80381 0.89992,-1.85824 0.88205,-5.39258 -0.0203,-4.00298 -0.12729,-4.47262 -1.20478,-5.28488 -0.97914,-0.73813 -1.22601,-1.48304 -1.43511,-4.33014 l -0.25254,-3.43865 -14.39467,-0.11953 c -7.91707,-0.0657 -64.12148,0.0479 -124.89868,0.25254 -97.381054,0.32788 -110.565066,0.46204 -111.018143,1.12968 -0.291577,0.42966 -0.398799,2.14852 -0.247698,3.97077 0.237982,2.87003 0.148672,3.30852 -0.836309,4.10611 -0.900213,0.72895 -1.139781,1.54843 -1.304411,4.46198 -0.18787,3.32483 -0.111479,3.65261 1.116477,4.79065 1.183516,1.09684 1.318146,1.5897 1.318146,4.8255 l 0,3.60388 -4.254397,0 c -3.888523,0 -4.394217,-0.11765 -5.880248,-1.36806 z"
     id="path3606"
     inkscape:connector-curvature="0" />
  <path
     style="fill:#cccccc;stroke:none"
     d="m 689.51752,109.1411 c -59.16968,-0.18108 -133.54848,-0.36255 -165.28621,-0.40327 l -57.70496,-0.074 0,-20.960676 0,-20.96066 96.9128,0 c 84.4162,0 96.99183,0.0952 97.52573,0.73854 0.93431,1.12577 5.62719,2.71477 10.78406,3.65146 6.6567,1.20911 22.7016,1.19054 28.87889,-0.0334 5.07501,-1.00557 8.83476,-2.45022 10.14516,-3.8982 0.79507,-0.87854 1.65736,-0.96345 9.78399,-0.96345 6.25818,0 9.09256,0.18048 9.51817,0.60609 0.34413,0.34413 0.60609,1.99221 0.60609,3.81315 0,3.66922 0.98716,6.05182 2.66084,6.42214 0.61997,0.13718 14.76429,0.31093 31.43181,0.38612 l 30.30457,0.13671 0.14123,-6.1135 0.14122,-6.1135 17.03137,0.24172 c 9.36725,0.13295 17.14501,0.34713 17.28391,0.47594 0.65009,0.60292 0.0212,6.78437 -0.99109,9.74158 -3.3534,9.79631 -10.29127,20.36188 -19.65074,29.925776 l -3.83067,3.91434 -4.05246,-0.10181 c -2.22885,-0.056 -52.46402,-0.24996 -111.63371,-0.43104 z"
     id="path3608"
     inkscape:connector-curvature="0" />
  <path
     style="fill:#cccccc;stroke:none"
     d="m 469.55681,136.94807 0,-20.20305 75.13009,0.0741 c 41.32155,0.0408 114.56393,0.21123 162.76083,0.37881 83.03523,0.2887 87.54806,0.34995 86.05416,1.16796 l -1.57658,0.86329 -0.25026,9.99585 c -0.27811,11.10885 -1.04613,15.62032 -3.48578,20.47619 -0.80251,1.59731 -1.6263,2.90334 -1.83065,2.9023 -1.24751,-0.006 -3.7932,-2.32565 -4.85713,-4.42522 -0.68094,-1.34377 -1.79472,-2.69684 -2.47507,-3.00683 -0.79794,-0.36357 -6.68412,-0.61724 -16.5836,-0.71469 -17.72743,-0.17452 -17.81675,-0.15594 -21.39573,4.45082 -1.11765,1.43861 -2.47255,2.77436 -3.0109,2.96835 -2.48549,0.89564 -3.81054,-4.40056 -2.86282,-11.44263 0.30775,-2.28678 0.4677,-4.24964 0.35544,-4.36189 -0.11225,-0.11226 -2.21484,1.10614 -4.67241,2.70755 -5.14504,3.35263 -12.67976,10.62344 -15.76768,15.21539 l -2.12279,3.15673 -121.70456,0 -121.70456,0 0,-20.20305 z m 233.22282,16.93434 c 3.73729,-1.6772 6.85464,-4.82703 7.75657,-7.83741 1.27951,-4.27065 -1.11066,-8.97881 -5.94469,-11.70986 -7.4847,-4.22858 -18.05894,-3.36927 -23.94946,1.94624 -6.7156,6.06004 -3.63324,15.10467 6.24934,18.33754 4.64304,1.51887 11.57903,1.19734 15.88824,-0.73651 z"
     id="path3610"
     inkscape:connector-curvature="0" />
  <path
     style="fill:#808080;stroke:none"
     d="m 406.16973,113.68751 c -28.33478,-0.18166 -58.39313,-0.36353 -66.79633,-0.40416 l -15.27856,-0.0739 0,-26.263966 0,-26.26397 16.33431,0 16.33431,0 0.33204,11.74302 c 0.18263,6.45867 0.33257,18.05017 0.33321,25.75889 l 10e-4,14.015876 38.16281,0 38.16282,0 -0.36089,-25.758896 -0.3609,-25.75889 15.67008,0 15.67008,0 0.31307,1.89404 c 0.17218,1.04172 0.31556,13.08778 0.31862,26.76904 l 0.006,24.875006 -3.6618,-0.10091 c -2.014,-0.0555 -26.84481,-0.24956 -55.17959,-0.43121 z"
     id="path3612"
     inkscape:connector-curvature="0" />
  <path
     style="fill:#808080;stroke:none"
     d="m 358.94417,100.96138 c -5.1e-4,-5.347496 -0.14461,-16.427606 -0.32022,-24.622476 l -0.31929,-14.89975 1.48428,1.38896 1.48428,1.38896 33.08163,0 33.08162,0 2.11981,-1.55892 2.1198,-1.55892 8.1e-4,7.74611 c 4.5e-4,4.26035 0.15087,15.41695 0.33428,24.79243 l 0.33346,17.046326 -36.69976,0 -36.69977,0 -9.3e-4,-9.72272 z"
     id="path3614"
     inkscape:connector-curvature="0" />
  <path
     style="fill:#808080;stroke:none"
     d="m 441.14627,164.85494 -6.43973,-0.15786 0,-1.37548 c 0,-0.75652 0.77133,-2.46038 1.71407,-3.78636 1.84494,-2.59494 2.55465,-5.08748 2.03646,-7.1521 l -0.3245,-1.29294 -42.62419,0 -42.62419,0 0.002,1.6415 c 0.003,2.3618 1.66023,4.74356 4.55226,6.54134 1.38432,0.86053 2.51693,1.62948 2.51693,1.70877 0,0.0793 -0.22165,0.72716 -0.49257,1.43973 l -0.49258,1.29557 -17.18509,0 -17.18509,0 0,-2.30605 c 0,-2.78738 -0.70452,-4.25994 -2.03808,-4.25994 -0.97079,0 -0.9924,-0.46433 -0.99307,-21.33947 l -6.8e-4,-21.33948 7.95563,0.1537 c 20.99006,0.40552 137.00298,0.80999 137.00281,0.47765 -10e-5,-0.20835 0.34321,-0.37881 0.76291,-0.37881 0.67078,0 0.74716,2.58151 0.63135,21.33947 l -0.13175,21.33948 -1.13642,0.16139 c -1.03965,0.14766 -1.13642,0.42939 -1.13642,3.30825 0,1.77412 -0.2644,3.41125 -0.6061,3.75295 -0.59802,0.59802 -6.41404,0.65399 -23.76383,0.22869 z m 6.43972,-19.76931 18.68782,-0.30888 0.13563,-12.08722 c 0.0746,-6.64797 -0.039,-12.25539 -0.25254,-12.46093 -0.21349,-0.20554 -32.3714,-0.53852 -71.46202,-0.73995 l -71.07385,-0.36625 -0.52071,1.36957 c -0.56157,1.47705 -0.71874,19.989 -0.19653,23.14836 l 0.31307,1.89403 52.84065,-0.0699 c 29.06236,-0.0385 61.25018,-0.20893 71.52848,-0.37881 z"
     id="path3616"
     inkscape:connector-curvature="0" />
  <path
     style="fill:#808080;stroke:none"
     d="m 742.29799,75.965984 c -10.38899,-0.17144 -10.10152,-0.0158 -10.10152,-5.47014 0,-2.57347 -0.21555,-3.80859 -0.74074,-4.24446 -0.64075,-0.53177 -0.5409,-1.01062 0.73973,-3.54755 0.81426,-1.61304 2.62494,-4.24064 4.02374,-5.83912 2.16229,-2.47098 2.54409,-3.216103 2.54882,-4.97432 0.0146,-5.450389 1.42195,-7.759628 3.91558,-6.425078 1.00632,0.538566 1.0209,0.39322 1.2239,-12.196137 0.23304,-14.452937 0.42076,-15.234857 4.49467,-18.721971 4.10361,-3.51254 14.40818,-5.5990019 21.63339,-4.380313 4.94028,0.833287 10.97743,3.876633 13.59965,6.855632 3.92696,4.461263 3.84808,4.011693 4.02653,22.95089 l 0.15941,16.920057 1.93524,1.3472 c 2.93342,2.04206 4.05938,5.52624 4.05938,12.56134 l 0,5.53689 -21.33947,-0.11353 c -11.73671,-0.0624 -25.31695,-0.17916 -30.17831,-0.25939 z"
     id="path3618"
     inkscape:connector-curvature="0" />
  <path
     style="fill:#808080;stroke:none"
     d="m 677.90077,70.465054 c -8.19012,-0.89407 -15.4955,-2.9243 -16.08914,-4.47132 -0.13833,-0.36047 -0.11934,-4.5621 0.0422,-9.33694 0.28397,-8.393749 0.33293,-8.707224 1.47711,-9.456919 1.25543,-0.822594 1.63951,-0.787449 7.49876,0.686185 2.93582,0.738374 5.84871,0.890587 17.17259,0.897348 13.8929,0.0083 13.88306,0.0093 18.5391,-1.968848 0.57968,-0.246287 1.25926,0.03185 2.07781,0.850399 1.14836,1.148367 1.23713,1.674238 1.58743,9.403915 0.41601,9.18002 0.40349,9.22461 -3.01144,10.72596 -3.8295,1.68361 -9.80848,2.5558 -18.68782,2.7261 -4.72246,0.0906 -9.49543,0.0654 -10.6066,-0.0559 z"
     id="path3620"
     inkscape:connector-curvature="0" />
  <path
     style="fill:#808080;stroke:none"
     d="m 636.48451,169.46871 c -5.98076,-1.53953 -14.42236,-5.34407 -16.18904,-7.29623 -0.87085,-0.96227 -0.81947,-0.98075 2.72624,-0.98075 3.51802,0 3.61382,-0.0335 3.61382,-1.26269 l 0,-1.26269 17.67767,0 c 17.34095,0 17.67767,0.0192 17.67767,1.01015 0,0.90836 0.34356,1.01222 3.40926,1.03068 l 3.40927,0.0205 -1.76777,1.52559 c -2.29801,1.9832 -7.85739,4.62361 -12.62691,5.99711 -3.71877,1.07091 -15.41534,1.86566 -17.93021,1.2183 z"
     id="path3622"
     inkscape:connector-curvature="0" />
  <path
     style="fill:#000000;stroke:none"
     d="m 686.81154,153.1386 c -10.82974,-4.00709 -11.3036,-13.77667 -0.89879,-18.52998 2.64938,-1.21034 3.76008,-1.41842 7.64538,-1.43234 3.11763,-0.0112 5.36726,0.27034 7.16087,0.89608 10.89325,3.80034 11.67421,13.99518 1.42543,18.60775 -3.63171,1.63448 -11.51732,1.87029 -15.33289,0.45849 z m 1.25994,-5.38227 c 0.73866,-0.19821 1.51866,-1.32328 2.47115,-3.56442 l 1.39181,-3.2748 -2.42397,-2.46097 -2.42397,-2.46098 -2.98148,2.34239 c -3.13286,2.46131 -3.17902,2.59926 -1.95055,5.83036 0.50464,1.32731 3.31124,3.89581 4.24508,3.88494 0.32592,-0.004 1.0783,-0.13723 1.67193,-0.29652 z m 14.51798,-0.17883 c 0.93381,-0.35504 1.35999,-0.98789 1.61561,-2.39911 0.19096,-1.05428 0.67452,-2.56302 1.07456,-3.35277 0.40005,-0.78974 0.65378,-1.49515 0.56384,-1.56758 -0.0899,-0.0724 -1.20626,-0.73316 -2.48073,-1.46829 -3.12094,-1.80021 -4.80473,-1.69563 -7.23377,0.4493 -1.93097,1.70511 -1.96187,1.786 -1.39065,3.64078 0.71541,2.32301 0.95013,2.65495 2.86042,4.04518 1.66127,1.20902 3.04955,1.39052 4.99072,0.65249 z"
     id="path3624"
     inkscape:connector-curvature="0" />
  <path
     style="fill:#ffe680;stroke:none"
     d="m 324.43156,143.68242 c -0.1852,-0.1852 -0.33672,-5.41274 -0.33672,-11.61676 l 0,-11.28003 61.74557,0.002 c 33.96007,8.5e-4 65.66623,0.15027 70.45814,0.33204 l 8.71257,0.33049 0,10.95096 0,10.95095 -14.01587,0.33279 c -18.34953,0.43567 -126.12772,0.43399 -126.56369,-0.002 z"
     id="path3630"
     inkscape:connector-curvature="0" />
  <path
     style="fill:#ffe680;stroke:none"
     d="m 413.15312,168.26945 c -2.53042,-0.53523 -3.74656,-1.1445 -9.51975,-4.76924 -4.54482,-2.85351 -7.73878,-4.15709 -10.84816,-4.42756 l -1.76777,-0.15377 -0.15394,2.39912 c -0.23584,3.67542 -2.1189,3.07764 -2.1189,-0.67266 0,-1.29424 -0.18099,-1.47392 -1.48474,-1.47392 -1.35046,0 -1.49891,0.17091 -1.6415,1.88984 -0.1072,1.29243 -0.4265,1.94092 -1.01007,2.05145 -0.67614,0.12806 -0.88589,-0.29055 -1.01016,-2.0161 -0.1475,-2.04813 -0.247,-2.17773 -1.67206,-2.17773 -1.44932,0 -1.52192,0.10436 -1.66917,2.39912 -0.12647,1.97099 -0.32609,2.39911 -1.11865,2.39911 -1.18392,0 -2.0104,-1.43982 -2.0104,-3.50233 0,-1.38376 -0.16114,-1.54843 -1.51523,-1.54843 -1.45613,0 -1.51523,0.0875 -1.51523,2.24303 0,3.80935 -1.86357,3.6828 -2.3792,-0.16157 -0.25206,-1.87921 -0.41727,-2.08146 -1.70024,-2.08146 -1.33697,0 -1.43016,0.14195 -1.57499,2.39911 -0.13967,2.17663 -0.27025,2.39911 -1.40807,2.39911 -1.06074,0 -1.30224,-0.29601 -1.56616,-1.91972 -0.4181,-2.57216 -1.02865,-3.1141 -2.81763,-2.50096 -2.62362,0.8992 -8.25168,-2.84964 -8.25168,-5.49642 0,-0.91168 1.33491,-0.94204 41.41625,-0.94204 l 41.41625,0 -0.0111,1.13642 c -0.0354,3.62585 -6.08655,10.73609 -11.28308,13.25787 -3.25244,1.57835 -8.74605,2.12396 -12.78463,1.26973 l 2e-5,0 z"
     id="path3632"
     inkscape:connector-curvature="0" />
  <path
     style="fill:#aa4400;stroke:none"
     d="m 674.30869,47.043856 c -1.69784,-0.235378 -4.02751,-0.681215 -5.17703,-0.990748 -2.33255,-0.628092 -2.47446,-1.075215 -1.53074,-4.823063 0.53687,-2.132109 0.65329,-2.237246 2.90419,-2.622771 1.28969,-0.220893 8.027,-0.401624 14.9718,-0.401624 15.13802,0 17.83375,0.422689 19.45815,3.051026 1.62309,2.626221 1.20029,4.363711 -1.2754,5.241192 -2.37543,0.841942 -24.27733,1.249363 -29.35097,0.545988 z"
     id="path3636"
     inkscape:connector-curvature="0" />
</svg>
